<svg width="17" height="17" viewBox="0 0 17 17" fill="none" xmlns="http://www.w3.org/2000/svg">
  <path d="M10.9286 10.9286V11.5357C10.9286 11.9 10.6857 12.1429 10.3214 12.1429H6.67857C6.31429 12.1429 6.07143 11.9 6.07143 11.5357V10.9286C6.07143 9.59286 7.16429 8.5 8.5 8.5C9.83571 8.5 10.9286 9.59286 10.9286 10.9286ZM8.5 4.25C7.46786 4.25 6.67857 5.03929 6.67857 6.07143C6.67857 7.10357 7.46786 7.89286 8.5 7.89286C9.53214 7.89286 10.3214 7.10357 10.3214 6.07143C10.3214 5.03929 9.53214 4.25 8.5 4.25ZM17 15.1786C17 16.2107 16.2107 17 15.1786 17C14.1464 17 13.3571 16.2107 13.3571 15.1786C13.3571 14.9357 13.4179 14.6321 13.5393 14.3893L12.325 13.175C10.0786 14.9964 6.86071 14.9964 4.675 13.175L3.46071 14.3893C3.58214 14.6321 3.64286 14.875 3.64286 15.1786C3.64286 16.2107 2.85357 17 1.82143 17C0.789286 17 0 16.2107 0 15.1786C0 14.1464 0.789286 13.3571 1.82143 13.3571C2.06429 13.3571 2.36786 13.4179 2.61071 13.5393L3.825 12.325C2.00357 10.0786 2.00357 6.86071 3.825 4.675L2.61071 3.46071C2.36786 3.58214 2.125 3.64286 1.82143 3.64286C0.789286 3.64286 0 2.85357 0 1.82143C0 0.789286 0.789286 0 1.82143 0C2.85357 0 3.64286 0.789286 3.64286 1.82143C3.64286 2.06429 3.58214 2.36786 3.46071 2.61071L4.675 3.825C6.92143 2.00357 10.1393 2.00357 12.325 3.825L13.5393 2.61071C13.4179 2.36786 13.3571 2.125 13.3571 1.82143C13.3571 0.789286 14.1464 0 15.1786 0C16.2107 0 17 0.789286 17 1.82143C17 2.85357 16.2107 3.64286 15.1786 3.64286C14.9357 3.64286 14.6321 3.58214 14.3893 3.46071L13.175 4.675C14.9964 6.92143 14.9964 10.1393 13.175 12.325L14.3893 13.5393C14.6321 13.4179 14.875 13.3571 15.1786 13.3571C16.2107 13.3571 17 14.1464 17 15.1786ZM13.3571 8.5C13.3571 5.82857 11.1714 3.64286 8.5 3.64286C5.82857 3.64286 3.64286 5.82857 3.64286 8.5C3.64286 11.1714 5.82857 13.3571 8.5 13.3571C11.1714 13.3571 13.3571 11.1714 13.3571 8.5Z" fill="#3A7EF8" />
</svg>