<svg width="14" height="16" viewBox="0 0 14 16" fill="none" xmlns="http://www.w3.org/2000/svg">
<path d="M7.11963 0.0941141C7.98156 1.57706 9.22528 2.80019 10.7205 3.63551C11.5233 3.99274 12.2264 4.54209 12.7682 5.23547C13.31 5.92885 13.6738 6.74497 13.8277 7.61221C14.0268 8.53521 13.8748 9.49951 13.4015 10.3157C12.9282 11.1321 12.1679 11.7416 11.2697 12.0245C10.3714 12.3075 9.40023 12.2434 8.54653 11.8451C8.40256 11.7779 8.23202 11.8082 8.11987 11.9209C8.0076 12.0337 7.97749 12.2047 8.04474 12.349C8.40731 13.1289 8.94455 13.8143 9.61461 14.3518C10.2846 14.8894 11.0693 15.2646 11.9074 15.4482V16H2.00561V15.4482C2.84378 15.2646 3.6284 14.8894 4.29843 14.3518C4.96845 13.8143 5.50572 13.129 5.8683 12.349C5.93555 12.2047 5.90544 12.0336 5.79316 11.9209C5.681 11.8082 5.51046 11.7779 5.36651 11.8451C4.51281 12.2434 3.54161 12.3075 2.64338 12.0245C1.74515 11.7416 0.984794 11.1321 0.511533 10.3157C0.0382724 9.49948 -0.113712 8.53521 0.0853499 7.61221C0.239264 6.74497 0.603047 5.92885 1.1448 5.23547C1.68667 4.54209 2.38969 3.99274 3.19253 3.63551C4.6876 2.80016 5.93132 1.57703 6.79341 0.0941141C6.82727 0.0357942 6.88942 0 6.95667 0C7.02392 0 7.08607 0.0357942 7.11993 0.0941141H7.11963Z" fill="#78909C"/>
</svg>
