<svg width="23" height="23" viewBox="0 0 23 23" fill="none" xmlns="http://www.w3.org/2000/svg">
<mask id="mask0_0_1917" style="mask-type:alpha" maskUnits="userSpaceOnUse" x="0" y="0" width="23" height="23">
<rect width="23" height="23" fill="#D9D9D9"/>
</mask>
<g mask="url(#mask0_0_1917)">
<path d="M12.6758 3.1C13.6051 4.67563 14.946 5.9752 16.5581 6.86273C17.4236 7.24228 18.1816 7.82597 18.7658 8.56268C19.3498 9.2994 19.742 10.1665 19.908 11.088C20.1226 12.0687 19.9587 13.0932 19.4485 13.9605C18.9383 14.8278 18.1185 15.4754 17.1501 15.7761C16.1817 16.0767 15.1346 16.0086 14.2142 15.5854C14.059 15.514 13.8751 15.5462 13.7542 15.666C13.6332 15.7858 13.6007 15.9675 13.6732 16.1208C14.0641 16.9495 14.6433 17.6777 15.3658 18.2488C16.0881 18.8199 16.934 19.2186 17.8377 19.4137V20H7.1623V19.4137C8.06595 19.2187 8.91187 18.8199 9.63424 18.2488C10.3566 17.6777 10.9359 16.9495 11.3268 16.1208C11.3993 15.9675 11.3668 15.7858 11.2458 15.666C11.1248 15.5462 10.941 15.514 10.7858 15.5854C9.86537 16.0086 8.8183 16.0767 7.8499 15.7761C6.88149 15.4754 6.06173 14.8278 5.5515 13.9605C5.04126 13.0932 4.8774 12.0687 5.09202 11.088C5.25796 10.1665 5.65016 9.2994 6.23423 8.56268C6.81844 7.82597 7.57639 7.24228 8.44194 6.86273C10.0538 5.97517 11.3947 4.6756 12.3241 3.1C12.3607 3.03803 12.4277 3 12.5002 3C12.5727 3 12.6397 3.03803 12.6762 3.1H12.6758Z" fill="#1DE9B6"/>
</g>
</svg>
