<svg width="18" height="16" viewBox="0 0 18 16" fill="none" xmlns="http://www.w3.org/2000/svg">
<path d="M7.28268 15.2917C6.29935 15.2917 5.34935 15.0834 4.45768 14.6667L1.40768 15.1084C1.20768 15.1417 1.01602 15.0667 0.874349 14.9334C0.732682 14.7917 0.66601 14.5917 0.699343 14.4001L1.16602 11.3084C0.832687 10.5084 0.666016 9.67507 0.666016 8.8334C0.666016 7.15007 1.32435 5.55007 2.52435 4.34174C2.76601 4.09174 3.16601 4.10007 3.40768 4.34174C3.64934 4.5834 3.65768 4.9834 3.40768 5.22507C2.44101 6.20007 1.90769 7.47507 1.90769 8.8334C1.90769 9.5584 2.06601 10.2834 2.38268 10.9751C2.44935 11.1167 2.45768 11.2751 2.40768 11.4251L2.05768 13.7584L4.46601 13.4084C4.59101 13.3917 4.71602 13.4084 4.83268 13.4667C5.76602 13.9334 6.80768 14.1167 7.81602 14.0167C8.14935 13.9751 8.46601 14.2334 8.49934 14.5751C8.53268 14.9167 8.28268 15.2251 7.94101 15.2584C7.73268 15.2834 7.50768 15.2917 7.28268 15.2917Z" fill="#78909C"/>
<path d="M17.3413 7.16683C17.3413 3.6085 14.3663 0.708496 10.7163 0.708496C8.92461 0.708496 7.25794 1.39183 6.02461 2.61683C4.78294 3.84183 4.09961 5.45016 4.09961 7.16683C4.09961 10.7252 7.06628 13.6252 10.7163 13.6252C11.0496 13.6252 11.3663 13.6002 11.6329 13.5585C11.6413 13.5585 11.6579 13.5585 11.6663 13.5502C12.3246 13.4585 12.9496 13.2752 13.5413 13.0002L16.5913 13.4418C16.7913 13.4752 16.9829 13.4085 17.1246 13.2668C17.2579 13.1252 17.3246 12.9252 17.2996 12.7335L16.8329 9.6335C17.1663 8.84183 17.3413 8.0085 17.3413 7.16683ZM8.67461 7.37516C8.59128 7.6335 8.34128 7.81683 8.04961 7.81683C7.68295 7.81683 7.38294 7.52516 7.38294 7.16683C7.38294 6.8085 7.68295 6.51683 8.04961 6.51683C8.12461 6.51683 8.19128 6.52516 8.25795 6.55016C8.52461 6.6335 8.71628 6.8835 8.71628 7.16683C8.71628 7.24183 8.69961 7.3085 8.67461 7.37516ZM10.7163 7.81683C10.3496 7.81683 10.0496 7.52516 10.0496 7.16683C10.0496 6.8085 10.3496 6.51683 10.7163 6.51683C11.0829 6.51683 11.3829 6.8085 11.3829 7.16683C11.3829 7.52516 11.0829 7.81683 10.7163 7.81683ZM13.3829 7.81683C13.0163 7.81683 12.7163 7.52516 12.7163 7.16683C12.7163 6.8085 13.0163 6.51683 13.3829 6.51683C13.7496 6.51683 14.0496 6.8085 14.0496 7.16683C14.0496 7.52516 13.7496 7.81683 13.3829 7.81683Z" fill="#78909C" fill-opacity="0.96"/>
</svg>
