<svg width="16" height="17" viewBox="0 0 16 17" fill="none" xmlns="http://www.w3.org/2000/svg">
<path d="M7.84408 0C5.40685 0 3.27771 1.38994 2.14527 3.44829C1.64363 3.92359 1.21869 4.47692 0.879461 5.08908C-0.929381 8.35337 0.14065 12.5454 3.2761 14.4288C3.80634 14.7472 4.36101 14.9762 4.9272 15.1268C7.47882 17.6421 11.5153 17.6307 14.0382 15.0539C16.5644 12.4739 16.6542 8.26383 14.2884 5.56331C13.7156 2.4 11.0467 0.000263287 7.84406 0.000263287L7.84408 0ZM6.23798 1.24497V1.82832C6.28332 2.21648 6.5313 2.54781 6.79834 2.71901C7.08712 2.8993 7.4409 3.00276 7.83908 3.00554C8.21471 2.97396 8.60766 2.89229 8.88983 2.71901C9.17768 2.53751 9.43718 2.24712 9.44019 1.83352V1.24497C10.2952 1.50803 11.0622 1.97896 11.6917 2.59935L11.2013 2.89109C10.9025 3.12873 10.7499 3.51244 10.7411 3.83903C10.7355 4.18955 10.8296 4.56214 11.0263 4.92249C11.2425 5.24325 11.5027 5.5575 11.7868 5.72462C12.0817 5.89342 12.4519 5.98598 12.7975 5.78185C12.9582 5.68046 13.1242 5.58329 13.2878 5.48504C13.3855 5.91725 13.4379 6.37003 13.4379 6.83421C13.4379 7.30115 13.3865 7.75347 13.2878 8.18859L12.8026 7.89698C12.4421 7.73859 12.0977 7.77924 11.7819 7.95954C11.4876 8.12979 11.2279 8.39903 11.0264 8.75647C10.8612 9.10724 10.7332 9.50572 10.7362 9.84513C10.7433 10.1954 10.8539 10.5733 11.1965 10.7828C11.1981 10.7847 11.1998 10.7863 11.2015 10.788L11.6869 11.0797C11.0584 11.6994 10.293 12.1654 9.44042 12.4288V11.8454C9.3959 11.4593 9.15431 11.1259 8.89007 10.9547C8.60221 10.7732 8.24194 10.675 7.84432 10.6734C7.46998 10.705 7.07899 10.7841 6.79858 10.9547C6.50979 11.135 6.24218 11.4233 6.23822 11.8402V12.4288C5.38325 12.1641 4.61723 11.6963 3.98667 11.0744L4.47205 10.7827C4.77271 10.556 4.92708 10.1626 4.93732 9.8398C4.94441 9.48949 4.84955 9.12081 4.65214 8.76154C4.43439 8.44078 4.17595 8.12328 3.89158 7.95424C3.56372 7.77576 3.17473 7.72663 2.87595 7.89688C2.71214 7.98897 2.54821 8.09085 2.38556 8.18862C2.2864 7.75349 2.23048 7.30121 2.23048 6.83424C2.23048 6.37021 2.28756 5.9174 2.38556 5.48506L2.87095 5.7768C3.21113 5.93507 3.61303 5.87687 3.88658 5.72465C4.18152 5.55585 4.44194 5.28528 4.64214 4.92762C4.80688 4.5766 4.93407 4.17827 4.93232 3.83896C4.92674 3.48843 4.82188 3.10835 4.47705 2.8961C4.31639 2.7947 4.15027 2.69754 3.98667 2.59929C4.70247 1.99537 5.49813 1.48088 6.2381 1.24503L6.23798 1.24497ZM4.3167 6.83404C4.3167 8.85342 5.89944 10.5063 7.83902 10.5063C9.77861 10.5063 11.3614 8.85342 11.3614 6.83404C11.3614 4.81466 9.77861 3.17232 7.83902 3.17232C5.78241 3.19495 4.29705 5.00185 4.3167 6.83404V6.83404ZM1.10955 7.157L1.29463 7.26638C1.34183 8.04649 1.51134 8.79668 1.79002 9.48544C1.54565 9.56203 1.31579 9.72865 1.11457 9.85003C0.914845 8.97544 0.904264 8.05532 1.10957 7.157L1.10955 7.157ZM14.8938 8.8186C15.0969 9.70846 15.0967 10.6385 14.8938 11.5272L14.4034 11.2303C14.0452 11.1036 13.6556 11.1418 13.3828 11.2928C13.0884 11.4631 12.8287 11.7323 12.6272 12.0898C12.462 12.4405 12.334 12.839 12.337 13.1784C12.3441 13.5287 12.4547 13.9066 12.7973 14.1161C12.9596 14.2175 13.1275 14.3148 13.2927 14.4129C12.6328 15.063 11.8575 15.514 11.0411 15.7673V15.1787C11.0404 14.6983 10.6417 14.3457 10.2406 14.163C11.0719 13.4917 11.8566 12.78 12.232 11.9129C13.0063 11.1834 13.6155 10.267 13.9882 9.23026C14.1243 9.22784 14.2638 9.19517 14.3984 9.11568C14.5608 9.01428 14.7286 8.91699 14.8937 8.81874L14.8938 8.8186ZM3.56134 12.0116C4.02045 12.4252 4.53592 12.7735 5.09232 13.0431C5.01339 13.1757 4.95898 13.3286 4.95723 13.5066V14.0952C4.09774 13.8221 3.34613 13.3559 2.7108 12.7356L3.19119 12.4491C3.33837 12.3187 3.49065 12.1743 3.56146 12.0116H3.56134ZM9.56045 13.4389C9.12379 13.7267 8.65027 13.9481 8.15956 14.1004V13.668C8.64167 13.6439 9.11102 13.5663 9.56045 13.4388V13.4389ZM7.83926 15.2046V15.7672C7.49376 15.6596 7.15798 15.5133 6.83364 15.3348C7.17298 15.3193 7.50748 15.2738 7.83926 15.2046V15.2046Z" fill="#1DE9B6"/>
</svg>
