<svg width="17" height="17" viewBox="0 0 17 17" fill="none" xmlns="http://www.w3.org/2000/svg">
<path d="M8.49998 3.37117e-05C6.24559 3.37117e-05 4.08369 0.895605 2.48959 2.48963C0.895571 4.08365 0 6.24583 0 8.50002C0 10.7542 0.895571 12.9163 2.48959 14.5104C4.08362 16.1044 6.24579 17 8.49998 17C10.7542 17 12.9163 16.1044 14.5104 14.5104C16.1044 12.9164 17 10.7542 17 8.50002C17 7.00799 16.6072 5.54218 15.8612 4.25001C15.1152 2.95784 14.0421 1.88481 12.75 1.1388C11.4578 0.392789 9.99197 0 8.49995 0L8.49998 3.37117e-05ZM14.0422 7.21898L11.1112 9.34847L12.2307 12.794C12.2762 12.9342 12.2601 13.087 12.1865 13.2146C12.1128 13.3421 11.9886 13.4325 11.8444 13.4631C11.7004 13.4937 11.5501 13.4618 11.4308 13.3752L8.49983 11.2457L5.56884 13.3752C5.4496 13.4618 5.29927 13.4938 5.15524 13.4631C5.0111 13.4325 4.88685 13.3421 4.81319 13.2146C4.73952 13.087 4.72346 12.9342 4.76892 12.794L5.88845 9.34847L2.95747 7.21898C2.83822 7.13241 2.76141 6.99934 2.74599 6.85283C2.73058 6.70633 2.77814 6.5602 2.8767 6.4507C2.97526 6.34121 3.11571 6.27876 3.26301 6.27876H6.88598L8.00552 2.83321C8.05111 2.69316 8.15388 2.57892 8.28853 2.51897C8.42306 2.45915 8.57669 2.45915 8.71134 2.51897C8.84587 2.57892 8.94864 2.69316 8.99423 2.83321L10.1138 6.27876H13.7367C13.884 6.27876 14.0244 6.34121 14.1229 6.4507C14.2215 6.56019 14.269 6.70631 14.2536 6.85283C14.2382 6.99936 14.1614 7.13243 14.0421 7.21898H14.0422Z" fill="#FFC400"/>
</svg>
