<svg width="20" height="17" viewBox="0 0 20 17" fill="none" xmlns="http://www.w3.org/2000/svg">
<path d="M5.71419 1.41666C5.71419 0.634341 6.3537 0 7.14276 0H18.5713C19.3604 0 19.9999 0.634341 19.9999 1.41666V11.3333C19.9999 11.5945 19.855 11.8345 19.6227 11.9578C19.3904 12.0812 19.1086 12.0676 18.8894 11.9227L15.855 9.91667H7.14271C6.35365 9.91667 5.71414 9.28249 5.71414 8.50001L5.71419 1.41666Z" fill="#FF5252"/>
<path d="M5 8.49991V4.95825H1.42857C0.639673 4.95825 0 5.59243 0 6.37491V16.2916C0 16.5527 0.144931 16.7928 0.377233 16.9161C0.609535 17.0394 0.891273 17.0258 1.1105 16.881L4.14478 14.8749H12.857C13.6461 14.8749 14.2856 14.2407 14.2856 13.4583V10.6249H7.14274C5.95923 10.6249 4.99988 9.67359 4.99988 8.49994L5 8.49991Z" fill="#FF5252"/>
</svg>
