<svg width="18" height="17" viewBox="0 0 18 17" fill="none" xmlns="http://www.w3.org/2000/svg">
<path d="M14.3846 11.7692V15.2564C14.3846 16.218 13.6026 17 12.641 17C11.6794 17 10.8974 16.218 10.8974 15.2564V11.7692C10.8974 10.8076 11.6794 10.0256 12.641 10.0256C13.6026 10.0256 14.3846 10.8076 14.3846 11.7692ZM4.79487 10.0256C3.83328 10.0256 3.05128 10.8076 3.05128 11.7692V15.2564C3.05128 16.218 3.83328 17 4.79487 17C5.75646 17 6.53846 16.218 6.53846 15.2564V11.7692C6.53846 10.8076 5.75646 10.0256 4.79487 10.0256ZM8.71795 0C3.91087 0 0 3.91087 0 8.71795V13.0769C0 13.559 0.390564 13.9487 0.871795 13.9487C1.35303 13.9487 1.74359 13.559 1.74359 13.0769V8.71795C1.74359 4.87246 4.87246 1.74359 8.71795 1.74359C12.5634 1.74359 15.6923 4.87246 15.6923 8.71795V13.0769C15.6923 13.559 16.0829 13.9487 16.5641 13.9487C17.0453 13.9487 17.4359 13.559 17.4359 13.0769V8.71795C17.4359 3.91087 13.525 0 8.71795 0Z" fill="#03AC00"/>
</svg>
