<svg width="18" height="17" viewBox="0 0 18 17" fill="none" xmlns="http://www.w3.org/2000/svg">
<path fill-rule="evenodd" clip-rule="evenodd" d="M9.43163 0C11.744 0 13.8857 0.86782 15.4968 2.47166L15.4967 2.47182C17.2405 4.20766 18.1502 6.60391 17.9797 9.07557C17.8091 11.5284 16.5961 13.7925 14.6059 15.302C13.1086 16.4339 11.2891 17 9.46951 17C7.21404 17 4.95852 16.132 3.30959 14.4528C2.72207 13.8491 2.22917 13.1887 1.85013 12.4528C1.81232 12.3962 1.81232 12.3207 1.83123 12.2453C1.86904 12.1698 1.92602 12.1133 2.00178 12.0755L3.68879 11.3773C3.80248 11.3207 3.95413 11.3961 4.02988 11.5282C4.40895 12.1697 4.88279 12.7547 5.47032 13.2452C7.51731 14.9622 10.6067 15.151 12.8243 13.6981C14.3975 12.6415 15.4209 10.9811 15.6105 9.13208C15.7999 7.26419 15.1555 5.45281 13.8288 4.13209C11.4596 1.77361 7.68793 1.69807 5.24285 3.92454L4.75009 4.41507L5.9442 5.60378C6.19063 5.86793 6.07695 6.30186 5.71679 6.39623L0.580367 7.64154C0.239128 7.71695 -0.0640316 7.41503 0.0117253 7.07547L1.2627 1.98115C1.3575 1.62264 1.7934 1.49063 2.05875 1.75478L3.08218 2.77358L3.55602 2.30188C5.12916 0.81125 7.21406 0 9.43163 0ZM8.6924 4.41504H10.1708L10.1708 4.41506C10.3415 4.41506 10.4552 4.52825 10.4172 4.69816V7.81129C10.4172 7.98106 10.5309 8.13202 10.6826 8.18861L12.8433 8.96223C12.919 9 12.9759 9.03777 13.0138 9.11319C13.0516 9.1886 13.0516 9.26415 13.0327 9.33956L12.54 10.7169C12.502 10.8678 12.3315 10.9433 12.1798 10.8867L8.95774 9.73572C8.63556 9.60371 8.40815 9.30179 8.40815 8.94327V4.698C8.40815 4.54718 8.54076 4.41504 8.6924 4.41504Z" fill="#3A7EF8"/>
</svg>
