<svg width="19" height="17" viewBox="0 0 19 17" fill="none" xmlns="http://www.w3.org/2000/svg">
<path d="M18.0807 8.4155L14.2494 4.58425L10.0084 0.322741C9.57811 -0.10758 8.86114 -0.10758 8.43082 0.322741L4.14882 4.58425L2.65309 6.07998L0.338052 8.41561C-0.112684 8.86635 -0.112684 9.62437 0.338052 10.0751L0.358489 10.0955C0.809225 10.5463 1.56724 10.5463 2.01798 10.0955L2.67367 9.43985V15.7706C2.67367 16.4468 3.22688 17 3.90302 17H6.38215C6.85333 17 7.24264 16.6722 7.32467 16.2214C7.3451 16.16 7.34511 16.0985 7.34511 16.0575L7.34496 11.4477H11.1352V16.037C11.1352 16.0985 11.1352 16.1599 11.1557 16.2009C11.2376 16.6517 11.6269 16.9795 12.0982 16.9795L14.5363 16.9794C15.2124 16.9794 15.7657 16.4262 15.7657 15.75L15.7655 9.43971L16.4212 10.0954C16.8719 10.5461 17.63 10.5461 18.0807 10.0954L18.1011 10.075C18.5519 9.62408 18.5519 8.86609 18.0807 8.4155Z" fill="#1DE9B6"/>
</svg>
