<svg width="14" height="17" viewBox="0 0 14 17" fill="none" xmlns="http://www.w3.org/2000/svg">
<path fill-rule="evenodd" clip-rule="evenodd" d="M6.98631 3.38566C6.82499 3.60058 6.52047 3.60058 6.35927 3.38566L4.31716 0.627038C4.1201 0.358239 4.29929 0 4.62168 0H8.74179C9.04631 0 9.24336 0.376255 9.04631 0.627038L6.98631 3.38566ZM8.92101 2.56157C11.4826 3.47516 13.3277 5.94723 13.3277 8.83131L13.3278 8.83147C13.3278 11.1781 12.1096 13.2382 10.2644 14.4205L10.8377 16.3193C10.8915 16.4805 10.8735 16.6417 10.7661 16.785C10.6585 16.9283 10.4973 16.9999 10.3361 16.9999H2.99154C2.81237 16.9999 2.66905 16.9105 2.56158 16.785C2.47212 16.6597 2.43625 16.4805 2.48998 16.3193L3.06328 14.4205C1.21806 13.2382 0 11.1781 0 8.83147C0 5.94739 1.82715 3.49327 4.40673 2.56173L5.08748 3.47529C4.35299 3.69022 3.67237 4.04846 3.09908 4.53216L5.67866 7.09386C5.82198 7.02213 5.9653 6.9684 6.1265 6.91467V4.49628C6.3057 4.56788 6.48474 4.60374 6.66394 4.60374C6.84314 4.60374 7.04018 4.56788 7.20137 4.49628V6.93252C7.36212 6.96828 7.50509 7.03971 7.64801 7.11111L7.64921 7.11171L10.2287 4.532C9.65537 4.04843 8.97475 3.69005 8.24026 3.47513L8.92101 2.56157ZM12.235 8.31179C12.1276 7.14747 11.6797 6.10845 10.9811 5.26651L8.40147 7.86395C8.47319 8.00727 8.54479 8.15059 8.58065 8.31179H12.235ZM4.92635 7.86395L2.34677 5.26651H2.34672C1.6661 6.10845 1.20027 7.16532 1.0928 8.31179H4.74717C4.78293 8.15105 4.85435 8.00808 4.92575 7.86516L4.92635 7.86395ZM1.09285 9.36869C1.2003 10.5152 1.64814 11.5542 2.34677 12.3961L4.9264 9.81652C4.85468 9.6732 4.80095 9.52988 4.74722 9.36869H1.09285ZM3.09917 13.1485C3.94111 13.8471 4.99798 14.2949 6.14444 14.4024V10.7302C5.9837 10.6945 5.84074 10.623 5.69782 10.5517L5.6966 10.551L3.09917 13.1485ZM6.66387 7.89974C6.14432 7.89974 5.73234 8.31185 5.73234 8.83128C5.73234 9.35084 6.14444 9.76282 6.66387 9.76282C7.18343 9.76282 7.59541 9.35071 7.59541 8.83128C7.59541 8.31172 7.1833 7.89974 6.66387 7.89974ZM7.20131 10.748V14.4023C8.34778 14.2949 9.38676 13.847 10.2466 13.1663L7.64915 10.5688C7.50582 10.6406 7.3625 10.7122 7.20131 10.748ZM8.38425 9.8153L8.38364 9.81652L10.9633 12.3961C11.6619 11.572 12.1097 10.5152 12.2172 9.36869H8.56282C8.52706 9.52942 8.45564 9.67238 8.38425 9.8153Z" fill="#FFC400"/>
</svg>
