<svg width="22" height="17" viewBox="0 0 22 17" fill="none" xmlns="http://www.w3.org/2000/svg">
<path fill-rule="evenodd" clip-rule="evenodd" d="M22 4.72224H20.9305C19.6206 4.72224 18.4102 5.44232 17.7552 6.61102C17.1002 7.77994 17.1002 9.22006 17.7552 10.389C18.4102 11.5577 19.6205 12.2778 20.9305 12.2778H22V14.28C21.9983 15.001 21.7197 15.6919 21.2248 16.2015C20.7301 16.7112 20.0596 16.9985 19.3599 17H7.63876V15.7408C7.63876 15.393 7.36532 15.1113 7.02771 15.1113C6.69033 15.1113 6.41667 15.393 6.41667 15.7408V17H2.64012C1.94035 16.9985 1.26986 16.7112 0.77517 16.2015C0.280271 15.6918 0.00170508 15.001 0 14.28V12.2778H1.06953C2.37942 12.2778 3.58983 11.5577 4.2448 10.389C4.89977 9.22006 4.89977 7.77994 4.2448 6.61102C3.58983 5.44232 2.37947 4.72224 1.06953 4.72224H0V2.71995C0.00169144 1.99897 0.280271 1.30814 0.77517 0.798452C1.26989 0.288771 1.94041 0.0015372 2.64012 0H6.41667V1.57408C6.41667 1.92169 6.69032 2.20365 7.02771 2.20365C7.36531 2.20365 7.63876 1.9217 7.63876 1.57408V0H19.3599C20.0596 0.00151786 20.7301 0.288765 21.2248 0.798452C21.7197 1.30817 21.9983 1.99902 22 2.71995V4.72224ZM7.02798 14.0092C7.36558 14.0092 7.63903 13.7273 7.63903 13.3797V9.83799C7.63903 9.49016 7.36559 9.20842 7.02798 9.20842C6.6906 9.20842 6.41694 9.49015 6.41694 9.83799V13.3797C6.41694 13.7273 6.69059 14.0092 7.02798 14.0092ZM7.02798 8.10645C7.36558 8.10645 7.63903 7.8245 7.63903 7.47688V3.9352C7.63903 3.58737 7.36559 3.30562 7.02798 3.30562C6.6906 3.30562 6.41694 3.58735 6.41694 3.9352V7.47688C6.41694 7.82449 6.69059 8.10645 7.02798 8.10645ZM14.9415 9.44448L15.8889 8.49997L15.8889 8.5C16.0978 8.2848 16.1694 7.96549 16.073 7.67759C15.9769 7.3897 15.7299 7.1835 15.4366 7.14639V7.14617L14.1504 6.95424L13.5728 5.7517C13.4436 5.47895 13.1751 5.30613 12.8807 5.30613C12.5863 5.30613 12.3176 5.47895 12.1886 5.7517L11.611 6.95424L10.3431 7.14002C10.0526 7.18437 9.81178 7.39409 9.72098 7.68177C9.63039 7.96944 9.70563 8.28522 9.91536 8.49691L10.8472 9.44142L10.6272 10.7636C10.5786 11.0618 10.6982 11.3629 10.9358 11.5406C11.1737 11.718 11.4885 11.7415 11.7486 11.601L12.9005 10.9714L14.0555 11.601C14.1614 11.6607 14.2799 11.6932 14.4008 11.6954C14.5643 11.6956 14.7235 11.6427 14.856 11.5443C15.0948 11.3673 15.2135 11.0649 15.1617 10.7667H15.1615L14.9415 9.44448ZM12.888 7.14941L13.1661 7.72873C13.2788 7.96414 13.4975 8.12664 13.7497 8.16309H13.7499L14.3609 8.25752L13.9148 8.73932C13.7343 8.92334 13.6522 9.18642 13.6947 9.44445L13.8016 10.074L13.2456 9.75912C13.0207 9.63768 12.7524 9.63768 12.5276 9.75912L11.9836 10.0424L12.0906 9.41283C12.1341 9.15436 12.0506 8.8904 11.8675 8.7077L11.4184 8.25752L12.0294 8.16617C12.2814 8.12818 12.4986 7.96436 12.61 7.72873H12.6098L12.888 7.14941Z" fill="#1DE9B6"/>
</svg>
