<svg width="15" height="17" viewBox="0 0 15 17" fill="none" xmlns="http://www.w3.org/2000/svg">
<path d="M8.08255 10.6958V16.9951L14.8932 14.0436V8.09956L8.08255 10.6958ZM0 14.0414L6.92372 17V10.6966L0 8.07177V14.0414ZM6.56164 7.18933H8.33149V3.0527C8.33149 2.73231 8.59088 2.47263 8.91091 2.47263H9.37732L7.44658 0L5.51581 2.47263H5.98222C6.30224 2.47263 6.56164 2.73231 6.56164 3.0527V7.18933Z" fill="#1EC5DC"/>
<path d="M1.09473 7.24652L7.50195 9.67552L13.8079 7.27169L9.48975 5.70628V7.76941C9.48975 8.0898 9.23035 8.34948 8.91033 8.34948H5.98172C5.6617 8.34948 5.4023 8.0898 5.4023 7.76941V5.69897L1.09473 7.24652Z" fill="#1EC5DC"/>
</svg>
