<svg width="19" height="22" viewBox="0 0 19 22" fill="none" xmlns="http://www.w3.org/2000/svg">
  <path d="M7.05627 19.7566H11.399C11.399 20.8377 10.6206 21.9188 9.22764 21.9188C7.8347 21.9188 7.05627 20.8377 7.05627 19.7566ZM18.1759 15.1889L16.9751 13.1932C16.5202 12.4375 16.2802 11.5726 16.2802 10.6937V7.85372C16.2802 3.98447 13.1166 0.837402 9.22873 0.837402C5.3409 0.837402 2.1772 3.98447 2.1772 7.85372V10.6937C2.1772 11.5726 1.93727 12.4375 1.48236 13.1932L0.281595 15.1889C-0.085366 15.7965 -0.0940384 16.5294 0.257723 17.1478C0.609485 17.7662 1.24568 18.135 1.95898 18.135H16.5006C17.215 18.135 17.8512 17.7651 18.203 17.1478C18.5515 16.5305 18.5428 15.7975 18.1759 15.1889Z" fill="#6a7280" />
</svg>