<svg width="17" height="17" viewBox="0 0 17 17" fill="none" xmlns="http://www.w3.org/2000/svg">
<path d="M8.00009 5.5502L8.50004 5.2873L8.99999 5.5502V6.50004H16C16.5523 6.50004 17 6.94781 17 7.50003V16C17 16.5522 16.5523 17 16 17H0.999992C0.447767 17 0 16.5522 0 16V7.50003C0 6.94781 0.447767 6.50004 0.999992 6.50004H8.00003L8.00009 5.5502ZM6.25006 9.25012V14.2499C6.25006 14.5261 6.47395 14.75 6.75002 14.75H10.2502C10.5262 14.75 10.7501 14.5261 10.7501 14.2499V9.25012C10.7501 8.97394 10.5263 8.75004 10.2502 8.75004H6.75002C6.47395 8.75004 6.25006 8.97393 6.25006 9.25012ZM2.24991 8.75004C1.69769 8.75004 1.24992 9.19781 1.24992 9.75004V13.7502C1.24992 14.3024 1.69769 14.7502 2.24991 14.7502H4.99996C5.27602 14.7502 5.49991 14.5263 5.49991 14.2501V9.2503C5.49991 8.97412 5.27603 8.75023 4.99996 8.75023L2.24991 8.75004ZM14.75 8.75004H12C11.7239 8.75004 11.5 8.97393 11.5 9.25012V14.2499C11.5 14.5261 11.7239 14.75 12 14.75H14.75C15.3023 14.75 15.75 14.3022 15.75 13.75V9.74985C15.75 9.19763 15.3023 8.74986 14.75 8.74986V8.75004ZM7.25003 9.75004H9.74999V13.7502H7.25003V9.75004ZM4.49998 9.75004V13.7502H2.49997C2.36193 13.7502 2.24999 13.6382 2.24999 13.5002V10C2.24999 9.86201 2.36193 9.75007 2.49997 9.75007L4.49998 9.75004ZM12.5 9.75004H14.5C14.638 9.75004 14.75 9.86198 14.75 10V13.5002C14.75 13.6382 14.638 13.7501 14.5 13.7501H12.5V9.75004ZM7.41001 5.01282C7.04323 5.20563 6.61456 4.89424 6.68463 4.48573L6.89274 3.27214L6.01096 2.41276C5.71427 2.12342 5.87803 1.61944 6.28808 1.55991L7.50665 1.38287L8.05153 0.278632C8.23497 -0.0928774 8.7648 -0.0928774 8.94824 0.278632L9.49312 1.38287L10.7117 1.55991C11.1217 1.61944 11.2855 2.1234 10.9888 2.41276L10.107 3.27214L10.3151 4.48573C10.3852 4.89424 9.95657 5.20564 9.58976 5.01282L8.49988 4.43983L7.41001 5.01282Z" fill="#FF5252"/>
</svg>
