<svg width="17" height="17" viewBox="0 0 17 17" fill="none" xmlns="http://www.w3.org/2000/svg">
<path fill-rule="evenodd" clip-rule="evenodd" d="M6.92443e-08 8.5C6.92443e-08 3.80527 3.80527 0 8.5 0C13.194 0 17.0009 3.80451 17 8.49924C17.0008 13.1947 13.1947 17 8.5 17C3.80565 16.9992 -0.000592773 13.194 6.92443e-08 8.5ZM13.0683 11.7471L14.2591 12.613L14.2592 12.6131C15.0792 11.467 15.5686 10.0705 15.5811 8.55658H14.104L13 5.15829L14.1899 4.29368C13.3335 3.13692 12.1362 2.25023 10.7418 1.78463L10.286 3.18762H6.71329L6.25733 1.78463C4.86371 2.24962 3.666 3.13647 2.80971 4.29368L3.99952 5.15829L2.8955 8.55658L1.41931 8.55747C1.43161 10.0703 1.92077 11.4668 2.74061 12.6124L3.93102 11.7471L6.82311 13.848L6.36597 15.255C7.03952 15.4673 7.7556 15.5835 8.49943 15.5835C9.24337 15.5835 9.96006 15.4671 10.6338 15.2543L10.1769 13.8479L13.0683 11.7471ZM5.59784 9.45527L6.70109 6.05698H10.2753L11.3795 9.45527L8.48875 11.5554L5.59784 9.45527Z" fill="#FF5252"/>
</svg>
