<svg width="16" height="16" viewBox="0 0 16 16" fill="none" xmlns="http://www.w3.org/2000/svg">
<path fill-rule="evenodd" clip-rule="evenodd" d="M6.51711e-08 8C6.51711e-08 3.58143 3.58143 0 8 0C12.4179 0 16.0008 3.58071 16 7.99929C16.0007 12.4186 12.4186 16 8 16C3.58179 15.9993 -0.000557904 12.4179 6.51711e-08 8ZM12.2995 11.0561L13.4204 11.8711L13.4204 11.8711C14.1921 10.7925 14.6528 9.47808 14.6645 8.05326H13.2743L12.2353 4.85486L13.3552 4.04111C12.5491 2.9524 11.4223 2.11786 10.11 1.67965L9.68096 3.00011H6.31839L5.88925 1.67965C4.57761 2.11729 3.45036 2.95197 2.64443 4.04111L3.76425 4.85486L2.72518 8.05326L1.33582 8.05409C1.34739 9.47795 1.80779 10.7923 2.57939 11.8705L3.69979 11.0561L6.42175 13.0335L5.9915 14.3577C6.62543 14.5574 7.29939 14.6668 7.99946 14.6668C8.69964 14.6668 9.37418 14.5573 10.0083 14.357L9.57829 13.0333L12.2995 11.0561ZM5.26841 8.89901L6.30677 5.70061H9.67077L10.71 8.89901L7.98927 10.8756L5.26841 8.89901Z" fill="#78909C"/>
</svg>
